:SAMPLES-PER-SECOND 30
:FULLY-SPECIFIED
:DEGREES
141
root  -39.5891 40.9547 36.5791 -4.67924 -1.75689 0.574939
RightUpLeg  -7.13612 -5.32664 -5.61744
RightLeg  11.51 -1.58235 -0.508388
RightFoot  -1.05292 -0.265182 2.91105
RightToes  -1.74624e-010 0 -3.6325e-017
Spine  3.5363 -0.511889 -0.0595331
Spine1  4.88613 -0.594959 -0.0331233
HEad  -6.83555 6.22068 -1.9647
LeftShoulder1  2.15092 -3.41849 -24.7685
LeftArm  -17.3952 19.6271 -8.72116
LeftForeArm  14.6298 -11.1698 -2.12665
LeftHand  -0.244104 0.0205437 5.32207
RightShoulder  1.75768 3.10801 20.1521
RightArm  -14.5871 -17.0161 10.9785
RightForeArm  -2.10024 5.56554 4.41534
RightHand  -1.17845 3.61007 -15.3723
LeftUpLeg  -3.31608 4.47655 -0.396566
LeftLeg  7.46305 5.37885 -4.265
LeftFoot  0.150483 -0.433614 4.29899
LeftToes  1.71891e-010 -1.5102e-010 2.10556e-011
142
root  -39.5874 41.0644 37.1118 -4.34606 -1.84925 0.66433
RightUpLeg  -6.03178 -6.55251 -5.80535
RightLeg  9.2578 1.07966 0.548796
RightFoot  1.88324 -0.0586225 0.572843
RightToes  -1.74624e-010 0 -3.6325e-017
Spine  2.36387 -0.405 0.871299
Spine1  4.96959 -0.321843 -0.57527
HEad  -5.9672 5.94101 -1.50406
LeftShoulder1  1.62098 -2.36559 -21.1181
LeftArm  -17.3818 18.0057 -4.96923
LeftForeArm  14.4304 -11.2617 -2.09062
LeftHand  -0.244104 0.0205437 5.32207
RightShoulder  1.017 1.22987 14.6815
RightArm  -14.0158 -16.1313 8.75351
RightForeArm  -3.13923 5.88226 4.6402
RightHand  -1.1263 3.16592 -15.4449
LeftUpLeg  -2.19446 4.02229 -0.608047
LeftLeg  6.21165 5.80427 -4.14446
LeftFoot  0.0393381 -0.431143 4.32305
LeftToes  1.71891e-010 -1.5102e-010 2.10556e-011
143
root  -39.5729 41.1579 37.5939 -4.17042 -2.6272 0.373265
RightUpLeg  -4.96423 -7.15034 -5.83341
RightLeg  8.35493 2.10701 1.2574
RightFoot  2.42461 0.0268742 -0.0890819
RightToes  -1.74624e-010 0 -3.6325e-017
Spine  1.68812 -0.114266 2.66426
Spine1  4.82231 0.220881 -1.68485
HEad  -5.29501 5.8416 -1.4374
LeftShoulder1  1.21229 -1.38663 -18.0654
LeftArm  -18.2457 16.9079 -1.62387
LeftForeArm  14.5699 -12.4077 -1.9695
LeftHand  -0.244104 0.0205437 5.32207
RightShoulder  0.563129 -0.185309 9.68215
RightArm  -14.1968 -15.0579 6.5962
RightForeArm  -4.93695 6.48778 4.77354
RightHand  -1.01135 2.19318 -15.6079
LeftUpLeg  -1.25068 3.79032 -0.403266
LeftLeg  5.63165 6.60656 -3.83541
LeftFoot  -0.50397 -0.39541 4.1967
LeftToes  1.71891e-010 -1.5102e-010 2.10556e-011
144
root  -39.5915 41.2195 38.0296 -4.12307 -3.48906 -0.0079158
RightUpLeg  -3.6567 -7.36851 -5.81773
RightLeg  7.00749 2.57528 1.85462
RightFoot  2.15565 -0.0342922 0.412984
RightToes  -1.74624e-010 0 -3.6325e-017
Spine  1.36631 0.145204 3.76314
Spine1  4.63479 0.524096 -1.98968
HEad  -4.68077 5.92241 -2.265
LeftShoulder1  0.788856 -0.0224113 -15.2669
LeftArm  -19.4123 16.0555 0.935747
LeftForeArm  14.9238 -14.0556 -1.98289
LeftHand  -0.244104 0.0205437 5.32207
RightShoulder  0.299774 -1.17098 5.09791
RightArm  -14.6745 -13.4487 4.56171
RightForeArm  -6.36156 6.90543 4.85701
RightHand  -0.979957 1.86082 -15.7973
LeftUpLeg  -0.425908 3.77532 -0.0345419
LeftLeg  5.51065 7.3193 -3.51238
LeftFoot  -1.27627 -0.331205 3.84751
LeftToes  1.71891e-010 -1.5102e-010 2.10556e-011
145
root  -39.6606 41.2666 38.434 -4.07043 -3.92384 -0.212979
RightUpLeg  -2.54045 -7.31831 -5.73834
RightLeg  5.75065 2.89334 2.26035
RightFoot  2.30978 -0.0258611 0.349429
RightToes  -1.74624e-010 0 -3.6325e-017
Spine  0.920505 0.192279 3.82689
Spine1  4.64449 0.493558 -1.68701
HEad  -3.74861 5.52439 -4.28018
LeftShoulder1  0.324764 1.80795 -11.5334
LeftArm  -20.242 15.0184 2.08973
LeftForeArm  15.3728 -15.1714 -2.1358
LeftHand  -0.244104 0.0205437 5.32207
RightShoulder  0.157548 -1.90806 1.67967
RightArm  -14.6809 -11.0805 2.3094
RightForeArm  -7.18538 6.79765 5.04759
RightHand  -1.13559 2.84313 -16.1466
LeftUpLeg  0.392835 3.73813 0.193435
LeftLeg  5.22458 7.69249 -3.28991
LeftFoot  -1.798 -0.287269 3.57198
LeftToes  1.71891e-010 -1.5102e-010 2.10556e-011
146
root  -39.7539 41.3053 38.8144 -3.92436 -3.90872 -0.267365
RightUpLeg  -1.81747 -7.26291 -5.62505
RightLeg  5.24665 2.86866 2.37798
RightFoot  2.32128 0.0530937 -0.312964
RightToes  -1.74624e-010 0 -3.6325e-017
Spine  0.307643 0.123914 3.61095
Spine1  4.6443 0.380937 -1.4913
HEad  -3.77326 5.95223 -3.06878
LeftShoulder1  0.0595466 3.12945 -7.59815
LeftArm  -20.4033 13.8317 2.72013
LeftForeArm  15.5024 -15.2586 -2.22063
LeftHand  -0.244104 0.0205437 5.32207
RightShoulder  0.0646276 -2.66194 -0.87367
RightArm  -15.4814 -8.72182 0.485666
RightForeArm  -7.31346 6.66853 5.02076
RightHand  -1.3457 4.07193 -16.6718
LeftUpLeg  1.04671 3.66002 0.280463
LeftLeg  4.87934 7.66907 -3.15162
LeftFoot  -2.15982 -0.266919 3.48621
LeftToes  1.71891e-010 -1.5102e-010 2.10556e-011
